<mxfile host="app.diagrams.net" modified="2024-05-24T16:12:04.900Z" agent="Mozilla/5.0 (Macintosh; Intel Mac OS X 10_15_7) AppleWebKit/605.1.15 (KHTML, like Gecko) Version/17.3 Safari/605.1.15" etag="1ngeWtlUBeBQ600ibSk7" version="24.4.8" type="github">
  <diagram name="Страница — 1" id="9D3lFtTxy1_C8NsxX6Uc">
    <mxGraphModel dx="778" dy="535" grid="1" gridSize="10" guides="1" tooltips="1" connect="1" arrows="1" fold="1" page="1" pageScale="1" pageWidth="827" pageHeight="1169" math="0" shadow="0">
      <root>
        <mxCell id="0" />
        <mxCell id="1" parent="0" />
        <mxCell id="-CiGPY36LbnuwlQys4zl-55" value="" style="rounded=0;whiteSpace=wrap;html=1;strokeWidth=3;" vertex="1" parent="1">
          <mxGeometry x="20" y="30" width="910" height="790" as="geometry" />
        </mxCell>
        <mxCell id="-CiGPY36LbnuwlQys4zl-50" value="" style="whiteSpace=wrap;html=1;aspect=fixed;strokeWidth=1;perimeterSpacing=0;" vertex="1" parent="1">
          <mxGeometry x="180" y="140" width="610" height="610" as="geometry" />
        </mxCell>
        <mxCell id="-CiGPY36LbnuwlQys4zl-2" value="Курьер" style="shape=umlActor;verticalLabelPosition=bottom;verticalAlign=top;html=1;" vertex="1" parent="1">
          <mxGeometry x="50" y="120" width="70" height="130" as="geometry" />
        </mxCell>
        <mxCell id="-CiGPY36LbnuwlQys4zl-3" value="Клиент" style="shape=umlActor;verticalLabelPosition=bottom;verticalAlign=top;html=1;" vertex="1" parent="1">
          <mxGeometry x="827" y="410" width="70" height="130" as="geometry" />
        </mxCell>
        <mxCell id="-CiGPY36LbnuwlQys4zl-4" value="Ресторан" style="shape=umlActor;verticalLabelPosition=bottom;verticalAlign=top;html=1;" vertex="1" parent="1">
          <mxGeometry x="50" y="420" width="70" height="130" as="geometry" />
        </mxCell>
        <mxCell id="-CiGPY36LbnuwlQys4zl-5" value="Куратор заказа" style="shape=umlActor;verticalLabelPosition=bottom;verticalAlign=top;html=1;" vertex="1" parent="1">
          <mxGeometry x="827" y="110" width="70" height="130" as="geometry" />
        </mxCell>
        <mxCell id="-CiGPY36LbnuwlQys4zl-13" value="Принять заказ" style="ellipse;whiteSpace=wrap;html=1;" vertex="1" parent="1">
          <mxGeometry x="210" y="280" width="140" height="70" as="geometry" />
        </mxCell>
        <mxCell id="-CiGPY36LbnuwlQys4zl-14" value="Доставить заказ" style="ellipse;whiteSpace=wrap;html=1;" vertex="1" parent="1">
          <mxGeometry x="210" y="180" width="140" height="70" as="geometry" />
        </mxCell>
        <mxCell id="-CiGPY36LbnuwlQys4zl-15" value="Связаться с курьером" style="ellipse;whiteSpace=wrap;html=1;" vertex="1" parent="1">
          <mxGeometry x="380" y="280" width="140" height="70" as="geometry" />
        </mxCell>
        <mxCell id="-CiGPY36LbnuwlQys4zl-16" value="Отслеживать статус заказа" style="ellipse;whiteSpace=wrap;html=1;" vertex="1" parent="1">
          <mxGeometry x="570" y="270" width="140" height="70" as="geometry" />
        </mxCell>
        <mxCell id="-CiGPY36LbnuwlQys4zl-18" value="Отменить заказ" style="ellipse;whiteSpace=wrap;html=1;" vertex="1" parent="1">
          <mxGeometry x="360" y="420" width="140" height="70" as="geometry" />
        </mxCell>
        <mxCell id="-CiGPY36LbnuwlQys4zl-19" value="Создать и оплатить заказ" style="ellipse;whiteSpace=wrap;html=1;" vertex="1" parent="1">
          <mxGeometry x="450" y="500" width="140" height="70" as="geometry" />
        </mxCell>
        <mxCell id="-CiGPY36LbnuwlQys4zl-21" value="Заказать продукты питания" style="ellipse;whiteSpace=wrap;html=1;" vertex="1" parent="1">
          <mxGeometry x="360" y="630" width="140" height="70" as="geometry" />
        </mxCell>
        <mxCell id="-CiGPY36LbnuwlQys4zl-22" value="Заказать блюдо в ресторане&amp;nbsp;" style="ellipse;whiteSpace=wrap;html=1;" vertex="1" parent="1">
          <mxGeometry x="510" y="630" width="140" height="70" as="geometry" />
        </mxCell>
        <mxCell id="-CiGPY36LbnuwlQys4zl-28" value="" style="endArrow=none;html=1;rounded=0;entryX=0;entryY=0.5;entryDx=0;entryDy=0;" edge="1" parent="1" source="-CiGPY36LbnuwlQys4zl-4" target="-CiGPY36LbnuwlQys4zl-18">
          <mxGeometry width="50" height="50" relative="1" as="geometry">
            <mxPoint x="140" y="460" as="sourcePoint" />
            <mxPoint x="190" y="410" as="targetPoint" />
            <Array as="points" />
          </mxGeometry>
        </mxCell>
        <mxCell id="-CiGPY36LbnuwlQys4zl-29" value="" style="endArrow=none;html=1;rounded=0;exitX=0.913;exitY=0.308;exitDx=0;exitDy=0;exitPerimeter=0;entryX=0.171;entryY=0.956;entryDx=0;entryDy=0;entryPerimeter=0;" edge="1" parent="1" source="-CiGPY36LbnuwlQys4zl-4" target="-CiGPY36LbnuwlQys4zl-13">
          <mxGeometry width="50" height="50" relative="1" as="geometry">
            <mxPoint x="180" y="430" as="sourcePoint" />
            <mxPoint x="230" y="380" as="targetPoint" />
          </mxGeometry>
        </mxCell>
        <mxCell id="-CiGPY36LbnuwlQys4zl-30" value="" style="endArrow=none;html=1;rounded=0;exitX=0.957;exitY=0.703;exitDx=0;exitDy=0;exitPerimeter=0;entryX=0.273;entryY=0.848;entryDx=0;entryDy=0;entryPerimeter=0;" edge="1" parent="1" source="-CiGPY36LbnuwlQys4zl-19" target="-CiGPY36LbnuwlQys4zl-3">
          <mxGeometry width="50" height="50" relative="1" as="geometry">
            <mxPoint x="440" y="510" as="sourcePoint" />
            <mxPoint x="690" y="515.9725570841016" as="targetPoint" />
          </mxGeometry>
        </mxCell>
        <mxCell id="-CiGPY36LbnuwlQys4zl-31" value="" style="endArrow=none;html=1;rounded=0;" edge="1" parent="1" source="-CiGPY36LbnuwlQys4zl-16" target="-CiGPY36LbnuwlQys4zl-3">
          <mxGeometry width="50" height="50" relative="1" as="geometry">
            <mxPoint x="450" y="410" as="sourcePoint" />
            <mxPoint x="500" y="360" as="targetPoint" />
          </mxGeometry>
        </mxCell>
        <mxCell id="-CiGPY36LbnuwlQys4zl-35" value="" style="endArrow=block;endSize=16;endFill=0;html=1;rounded=0;entryX=0.303;entryY=0.989;entryDx=0;entryDy=0;entryPerimeter=0;exitX=0.5;exitY=0;exitDx=0;exitDy=0;" edge="1" parent="1" source="-CiGPY36LbnuwlQys4zl-21" target="-CiGPY36LbnuwlQys4zl-19">
          <mxGeometry width="160" relative="1" as="geometry">
            <mxPoint x="350" y="614.23" as="sourcePoint" />
            <mxPoint x="510" y="614.23" as="targetPoint" />
          </mxGeometry>
        </mxCell>
        <mxCell id="-CiGPY36LbnuwlQys4zl-36" value="" style="endArrow=block;endSize=16;endFill=0;html=1;rounded=0;entryX=0.671;entryY=0.934;entryDx=0;entryDy=0;entryPerimeter=0;" edge="1" parent="1" source="-CiGPY36LbnuwlQys4zl-22" target="-CiGPY36LbnuwlQys4zl-19">
          <mxGeometry width="160" relative="1" as="geometry">
            <mxPoint x="480" y="640" as="sourcePoint" />
            <mxPoint x="542" y="579" as="targetPoint" />
          </mxGeometry>
        </mxCell>
        <mxCell id="-CiGPY36LbnuwlQys4zl-38" value="" style="endArrow=none;html=1;rounded=0;" edge="1" parent="1" source="-CiGPY36LbnuwlQys4zl-2" target="-CiGPY36LbnuwlQys4zl-14">
          <mxGeometry width="50" height="50" relative="1" as="geometry">
            <mxPoint x="290" y="230" as="sourcePoint" />
            <mxPoint x="340" y="180" as="targetPoint" />
          </mxGeometry>
        </mxCell>
        <mxCell id="-CiGPY36LbnuwlQys4zl-41" value="" style="endArrow=none;html=1;rounded=0;exitX=1;exitY=0.5;exitDx=0;exitDy=0;entryX=0.474;entryY=0.683;entryDx=0;entryDy=0;entryPerimeter=0;" edge="1" parent="1" source="-CiGPY36LbnuwlQys4zl-18" target="-CiGPY36LbnuwlQys4zl-3">
          <mxGeometry width="50" height="50" relative="1" as="geometry">
            <mxPoint x="450" y="410" as="sourcePoint" />
            <mxPoint x="500" y="360" as="targetPoint" />
            <Array as="points" />
          </mxGeometry>
        </mxCell>
        <mxCell id="-CiGPY36LbnuwlQys4zl-42" value="" style="endArrow=none;html=1;rounded=0;exitX=0.643;exitY=0;exitDx=0;exitDy=0;exitPerimeter=0;entryX=0.053;entryY=0.895;entryDx=0;entryDy=0;entryPerimeter=0;" edge="1" parent="1" source="-CiGPY36LbnuwlQys4zl-16" target="-CiGPY36LbnuwlQys4zl-5">
          <mxGeometry width="50" height="50" relative="1" as="geometry">
            <mxPoint x="670" y="250" as="sourcePoint" />
            <mxPoint x="720" y="200" as="targetPoint" />
          </mxGeometry>
        </mxCell>
        <mxCell id="-CiGPY36LbnuwlQys4zl-43" value="" style="endArrow=none;html=1;rounded=0;" edge="1" parent="1" source="-CiGPY36LbnuwlQys4zl-4" target="-CiGPY36LbnuwlQys4zl-15">
          <mxGeometry width="50" height="50" relative="1" as="geometry">
            <mxPoint x="290" y="430" as="sourcePoint" />
            <mxPoint x="340" y="380" as="targetPoint" />
          </mxGeometry>
        </mxCell>
        <mxCell id="-CiGPY36LbnuwlQys4zl-44" value="" style="endArrow=none;html=1;rounded=0;entryX=0.951;entryY=0.736;entryDx=0;entryDy=0;entryPerimeter=0;exitX=0.923;exitY=0.582;exitDx=0;exitDy=0;exitPerimeter=0;" edge="1" parent="1" source="-CiGPY36LbnuwlQys4zl-55" target="-CiGPY36LbnuwlQys4zl-15">
          <mxGeometry width="50" height="50" relative="1" as="geometry">
            <mxPoint x="680" y="430" as="sourcePoint" />
            <mxPoint x="500" y="330" as="targetPoint" />
          </mxGeometry>
        </mxCell>
        <mxCell id="-CiGPY36LbnuwlQys4zl-45" value="" style="endArrow=none;html=1;rounded=0;" edge="1" parent="1" source="-CiGPY36LbnuwlQys4zl-15" target="-CiGPY36LbnuwlQys4zl-5">
          <mxGeometry width="50" height="50" relative="1" as="geometry">
            <mxPoint x="550" y="270" as="sourcePoint" />
            <mxPoint x="600" y="220" as="targetPoint" />
          </mxGeometry>
        </mxCell>
        <mxCell id="-CiGPY36LbnuwlQys4zl-53" style="edgeStyle=orthogonalEdgeStyle;rounded=0;orthogonalLoop=1;jettySize=auto;html=1;exitX=0.5;exitY=1;exitDx=0;exitDy=0;" edge="1" parent="1">
          <mxGeometry relative="1" as="geometry">
            <mxPoint x="479.99999999999955" y="980" as="sourcePoint" />
            <mxPoint x="479.99999999999955" y="980" as="targetPoint" />
          </mxGeometry>
        </mxCell>
        <mxCell id="-CiGPY36LbnuwlQys4zl-54" style="edgeStyle=orthogonalEdgeStyle;rounded=0;orthogonalLoop=1;jettySize=auto;html=1;exitX=0.5;exitY=1;exitDx=0;exitDy=0;" edge="1" parent="1">
          <mxGeometry relative="1" as="geometry">
            <mxPoint x="479.99999999999955" y="980" as="sourcePoint" />
            <mxPoint x="479.99999999999955" y="980" as="targetPoint" />
          </mxGeometry>
        </mxCell>
        <mxCell id="-CiGPY36LbnuwlQys4zl-57" value="" style="rounded=0;whiteSpace=wrap;html=1;strokeWidth=2;" vertex="1" parent="1">
          <mxGeometry x="20" y="30" width="150" height="40" as="geometry" />
        </mxCell>
        <mxCell id="-CiGPY36LbnuwlQys4zl-58" value="&lt;font style=&quot;font-size: 10px;&quot;&gt;uc Диграмма вариантов использования&lt;/font&gt;" style="text;html=1;align=center;verticalAlign=middle;whiteSpace=wrap;rounded=0;" vertex="1" parent="1">
          <mxGeometry x="15" y="37.5" width="160" height="25" as="geometry" />
        </mxCell>
      </root>
    </mxGraphModel>
  </diagram>
</mxfile>
